<?xml version="1.0" encoding="iso-8859-1"?>
<!-- Generator: Adobe Illustrator 19.0.0, SVG Export Plug-In . SVG Version: 6.00 Build 0)  -->
<svg version="1.1" id="Layer_1" xmlns="http://www.w3.org/2000/svg" xmlns:xlink="http://www.w3.org/1999/xlink" x="0px" y="0px"
	 viewBox="0 0 489 489" style="enable-background:new 0 0 489 489;" xml:space="preserve">
<g>
	<g>
		<path d="M244.5,0C109.3,0,0,109.3,0,244.5S109.3,489,244.5,489S489,379.7,489,244.5S379.7,0,244.5,0z M265.3,447.4v-16.6
			c0-11.4-9.4-20.8-20.8-20.8s-20.8,9.4-20.8,20.8v16.6c-95.8-9.8-172.3-86.3-182-182h16.6c11.4,0,20.8-9.4,20.8-20.8
			s-9.4-20.8-20.8-20.8H41.6c9.8-95.8,86.3-172.3,182-182v16.6c0,11.4,9.4,20.8,20.8,20.8s20.8-9.4,20.8-20.8V41.6
			c95.8,9.8,172.3,86.3,182,182h-16.6c-11.4,0-20.8,9.4-20.8,20.8s9.4,20.8,20.8,20.8h16.6C437.6,361.1,361.1,437.6,265.3,447.4z"/>
		<path d="M345.4,115.5l-141.5,79.1c-4.2,2.1-6.2,5.2-8.3,8.3l-79.1,142.5c-5.2,7.3-2.8,17.4,3.1,23.9c9.1,10,21.8,5.2,23.9,4.2
			L285,294.4c4.2-2.1,6.2-5.2,8.3-8.3l79.2-143.6C382.9,123.8,361.8,105.5,345.4,115.5z M260.1,260.1l-73.9,41.6l41.6-73.9
			l73.9-41.6L260.1,260.1z"/>
	</g>
</g>
<g>
</g>
<g>
</g>
<g>
</g>
<g>
</g>
<g>
</g>
<g>
</g>
<g>
</g>
<g>
</g>
<g>
</g>
<g>
</g>
<g>
</g>
<g>
</g>
<g>
</g>
<g>
</g>
<g>
</g>
</svg>
