<?xml version='1.0' encoding='utf-8'?>
<!DOCTYPE svg PUBLIC '-//W3C//DTD SVG 1.1//EN' 'http://www.w3.org/Graphics/SVG/1.1/DTD/svg11.dtd'>
<svg version="1.1" xmlns="http://www.w3.org/2000/svg" viewBox="0 0 512 512" xmlns:xlink="http://www.w3.org/1999/xlink" enable-background="new 0 0 512 512">
  <g>
    <g>
      <path d="m480.6,460.2h-16.2l-88-310.4c-2.3-8.3-9.6-14.2-18.3-14.8-8.5-0.6-16.6,4.3-20.1,12.2l-67.4,154.1-48.5-96.5c-3.4-6.7-10.2-11.1-17.7-11.2-7.4,0-14.6,3.8-18.3,10.3l-145.5,256.3h-9.2c-11.3,0-20.4,9.1-20.4,20.4s9.1,20.4 20.4,20.4h449.2c11.3,0 20.4-9.1 20.4-20.4s-9.1-20.4-20.4-20.4zm-128-244.5l69.3,244.4h-176.2l106.9-244.4zm-149.7,41.5l46.6,92.6-48.2,110.3h-113.7l115.3-202.9z"/>
      <path d="m242.6,153.1c39.3,0 71.2-31.9 71.2-71.1 0-39.2-32-71.1-71.2-71.1-39.3,0-71.2,31.9-71.2,71.1-2.84217e-14,39.2 31.9,71.1 71.2,71.1zm0-101.3c16.8,0 30.4,13.6 30.4,30.2 0,16.7-13.6,30.2-30.4,30.2-16.8,0-30.4-13.6-30.4-30.2 0-16.6 13.6-30.2 30.4-30.2z"/>
    </g>
  </g>
</svg>
