<?xml version="1.0" ?><svg width="200px" height="200px" viewBox="0 0 200 200" data-name="Layer 1" id="Layer_1" xmlns="http://www.w3.org/2000/svg"><title/><path d="M176.15,99.94a9.67,9.67,0,0,0-14,0l-51.5,51a41,41,0,0,1-58-58l48.5-48.5c10.5-10.5,28-10.5,39,0,8.5,8.5,8.5,22.5,0,31.5l-52.5,52c-3.5,3.5-9,3.5-12,0-3.5-3.5-3.5-9,0-12l51-51a9.9,9.9,0,0,0-14-14l-51,51c-11,11-11,29,0,40.5,11,11,29,11,40.5,0l52.5-52.5a42,42,0,0,0,0-59.5,47.38,47.38,0,0,0-67,0l-48.5,48.5a61.16,61.16,0,0,0,86.5,86.5l51-51A12,12,0,0,0,176.15,99.94Z"/></svg>