<?xml version="1.0" encoding="iso-8859-1"?>
<!-- Generator: Adobe Illustrator 19.0.0, SVG Export Plug-In . SVG Version: 6.00 Build 0)  -->
<svg version="1.1" id="Layer_1" xmlns="http://www.w3.org/2000/svg" xmlns:xlink="http://www.w3.org/1999/xlink" x="0px" y="0px"
	 viewBox="0 0 512.001 512.001" style="enable-background:new 0 0 512.001 512.001;" xml:space="preserve">
<g>
	<g>
		<path d="M434.674,95.532l-21.28,29.291c8.512,6.184,16.408,13.281,23.469,21.096l26.861-24.275
			C454.983,111.972,445.21,103.187,434.674,95.532z"/>
	</g>
</g>
<g>
	<g>
		<path d="M363.611,63.913l-7.476,35.425c10.277,2.169,20.358,5.438,29.96,9.715l14.729-33.073
			C388.897,70.667,376.377,66.606,363.611,63.913z"/>
	</g>
</g>
<g>
	<g>
		<path d="M437.185,347.623c-1.237,1.377-2.508,2.724-3.795,4.055c0.699,5.23,1.066,10.555,1.066,15.953
			c0,8.804-0.957,17.387-2.755,25.659l3.455,4.725c10.51-7.686,20.256-16.502,28.966-26.201L437.185,347.623z"/>
	</g>
</g>
<g>
	<g>
		<path d="M486.768,153.192l-31.3,18.196c5.294,9.104,9.632,18.774,12.896,28.745l34.409-11.262
			C498.721,176.492,493.335,164.486,486.768,153.192z"/>
	</g>
</g>
<g>
	<g>
		<path d="M468.513,293.301c-3.231,9.984-7.539,19.67-12.803,28.791l31.358,18.097c6.529-11.318,11.878-23.341,15.889-35.737
			L468.513,293.301z"/>
	</g>
</g>
<g>
	<g>
		<path d="M510.956,227.115l-36.002,3.816c0.559,5.287,0.844,10.676,0.841,16.018c0,5.182-0.267,10.405-0.792,15.524l36.016,3.7
			c0.65-6.345,0.981-12.813,0.981-19.222C512.002,240.341,511.651,233.667,510.956,227.115z"/>
	</g>
</g>
<g>
	<g>
		<path d="M185.9,121.934c-8.73,9.703-16.462,20.335-22.98,31.601l1.594,0.923c11.176-2.651,22.773-4.052,34.61-4.052
			c3.267-0.001,6.51,0.132,9.734,0.34c1.291-1.556,2.603-3.093,3.955-4.596L185.9,121.934z"/>
	</g>
</g>
<g>
	<g>
		<path d="M248.691,76.145c-11.879,5.322-23.249,11.923-33.795,19.618l21.34,29.246c8.509-6.209,17.681-11.534,27.26-15.825
			L248.691,76.145z"/>
	</g>
</g>
<g>
	<g>
		<path d="M324.74,59.893c-13.084,0.015-26.159,1.395-38.863,4.104l7.552,35.408c10.239-2.183,20.786-3.296,31.351-3.308
			L324.74,59.893z"/>
	</g>
</g>
<g>
	<g>
		<path d="M324.943,132.3c-28.253,0-54.146,10.28-74.152,27.285c41.295,15.147,74.882,47.967,90.242,90.468
			c34.467,7.981,62.968,30.683,79.096,60.729c12.284-18.257,19.461-40.223,19.461-63.835
			C439.591,183.732,388.16,132.3,324.943,132.3z"/>
	</g>
</g>
<g>
	<g>
		<path d="M313.773,283.154h-1.428c-8.705-54.646-56.162-96.545-113.22-96.545c-57.058,0-104.515,41.9-113.22,96.545h-1.428
			C37.896,283.154,0,321.049,0,367.631s37.896,84.477,84.477,84.477h229.296c46.582,0,84.477-37.895,84.477-84.477
			S360.355,283.154,313.773,283.154z"/>
	</g>
</g>
<g>
</g>
<g>
</g>
<g>
</g>
<g>
</g>
<g>
</g>
<g>
</g>
<g>
</g>
<g>
</g>
<g>
</g>
<g>
</g>
<g>
</g>
<g>
</g>
<g>
</g>
<g>
</g>
<g>
</g>
</svg>
