<svg width="36" height="36" viewBox="0 0 36 36" fill="none" xmlns="http://www.w3.org/2000/svg">
<g clip-path="url(#clip0_245_903)">
<path d="M9.75 0C8.35761 0 7.02226 0.553123 6.03769 1.53769C5.05312 2.52226 4.5 3.85761 4.5 5.25V30.75C4.5 32.1424 5.05312 33.4777 6.03769 34.4623C7.02226 35.4469 8.35761 36 9.75 36C11.1424 36 12.4777 35.4469 13.4623 34.4623C14.4469 33.4777 15 32.1424 15 30.75V5.25C15 3.85761 14.4469 2.52226 13.4623 1.53769C12.4777 0.553123 11.1424 0 9.75 0Z" fill="#2C445C"/>
<path d="M26.25 0C24.8576 0 23.5223 0.553123 22.5377 1.53769C21.5531 2.52226 21 3.85761 21 5.25V30.75C21 32.1424 21.5531 33.4777 22.5377 34.4623C23.5223 35.4469 24.8576 36 26.25 36C27.6424 36 28.9777 35.4469 29.9623 34.4623C30.9469 33.4777 31.5 32.1424 31.5 30.75V5.25C31.5 3.85761 30.9469 2.52226 29.9623 1.53769C28.9777 0.553123 27.6424 0 26.25 0Z" fill="#2C445C"/>
</g>
<defs>
<clipPath id="clip0_245_903">
<rect width="36" height="36" fill="white"/>
</clipPath>
</defs>
</svg>
