<svg width="25" height="24" viewBox="0 0 25 24" fill="none" xmlns="http://www.w3.org/2000/svg">
<path d="M12.48 14.9944C10.7569 14.9944 9.35999 16.3384 9.35999 17.9963V24H15.6V17.9963C15.6 16.3384 14.2031 14.9944 12.48 14.9944Z" fill="#245611" fill-opacity="0.56"/>
<path d="M17.68 17.9963V24H21.84C23.5631 24 24.96 22.656 24.96 20.9981V11.8715C24.9602 11.3516 24.7503 10.8521 24.3745 10.4786L15.5366 1.28584C13.9772 -0.337513 11.3452 -0.437185 9.65801 1.06319C9.57786 1.13448 9.50064 1.20873 9.42659 1.28584L0.604256 10.4756C0.217084 10.8506 -0.000146176 11.3579 7.37992e-08 11.8865V20.9981C7.37992e-08 22.656 1.39688 24 3.12 24H7.27998V17.9963C7.29943 15.2677 9.58908 13.0396 12.3535 12.9754C15.2105 12.9091 17.6582 15.1752 17.68 17.9963Z" fill="#245611"/>
<path d="M12.48 14.9944C10.7569 14.9944 9.35999 16.3384 9.35999 17.9963V24H15.6V17.9963C15.6 16.3384 14.2031 14.9944 12.48 14.9944Z" fill="#245611"/>
</svg>
