<svg xmlns="http://www.w3.org/2000/svg" viewBox="0 0 24 24"><path fill="#303c42" d="M12.335.13a.497.497 0 0 0-.67 0C11.311.449 3 8.046 3 15c0 4.962 4.037 9 9 9s9-4.038 9-9C21 8.046 12.689.449 12.335.13z"/><path fill="#bbdefb" d="M12 23c-4.411 0-8-3.589-8-8 0-5.752 6.442-12.312 8-13.813 1.558 1.5 8 8.056 8 13.813 0 4.411-3.589 8-8 8z"/><linearGradient id="a" x1="5.55" x2="20.205" y1="9.499" y2="16.333" gradientUnits="userSpaceOnUse"><stop offset="0" stop-color="#fff" stop-opacity="0"/><stop offset="1" stop-color="#fff" stop-opacity=".2"/></linearGradient><path fill="url(#a)" d="M12 23c-4.411 0-8-3.589-8-8 0-5.752 6.442-12.312 8-13.813 1.558 1.5 8 8.056 8 13.813 0 4.411-3.589 8-8 8z"/><linearGradient id="b" x1="7.128" x2="18.473" y1="8.989" y2="14.28" gradientUnits="userSpaceOnUse"><stop offset="0" stop-color="#fff" stop-opacity=".25"/><stop offset="1" stop-color="#fff" stop-opacity="0"/></linearGradient><path fill="url(#b)" d="M12.011 20.842c-3.237 0-5.871-3.234-5.871-7.208 0-5.183 4.728-11.093 5.871-12.446 1.143 1.352 5.871 7.259 5.871 12.446 0 3.974-2.634 7.208-5.871 7.208z"/><linearGradient id="c" x1="10.892" x2="10.892" y1="19.484" y2="4.833" gradientUnits="userSpaceOnUse"><stop offset="0" stop-color="#fff" stop-opacity=".31"/><stop offset="1" stop-color="#fff" stop-opacity="0"/></linearGradient><path fill="url(#c)" d="M10.892 19.484c-2.541 0-4.609-2.41-4.609-5.373 0-3.863 3.712-8.269 4.609-9.277.897 1.008 4.609 5.411 4.609 9.277 0 2.962-2.068 5.373-4.609 5.373z"/><circle cx="15.594" cy="18.004" r=".802" fill="#fff" opacity=".2"/><circle cx="13.709" cy="16.307" r=".448" fill="#fff" opacity=".2"/><path fill="#303c42" d="M12 20c-2.757 0-5-2.243-5-5a.5.5 0 0 0-1 0c0 3.309 2.691 6 6 6a.5.5 0 0 0 0-1z"/><linearGradient id="d" x1="4.663" x2="21.137" y1="9.018" y2="16.7" gradientUnits="userSpaceOnUse"><stop offset="0" stop-color="#fff" stop-opacity=".2"/><stop offset="1" stop-color="#fff" stop-opacity="0"/></linearGradient><path fill="url(#d)" d="M12.335.13a.497.497 0 0 0-.67 0C11.311.449 3 8.046 3 15c0 4.962 4.037 9 9 9s9-4.038 9-9C21 8.046 12.689.449 12.335.13z"/></svg>