<svg width="36" height="36" viewBox="0 0 36 36" fill="none" xmlns="http://www.w3.org/2000/svg">
<g clip-path="url(#clip0_322_1414)">
<path d="M30 12.024C30.228 8.1345 25.3095 7.2795 22.5 6V3C22.8978 3 23.2793 2.84196 23.5607 2.56066C23.842 2.27936 24 1.89782 24 1.5C24 1.10218 23.842 0.720644 23.5607 0.43934C23.2793 0.158035 22.8978 0 22.5 0L13.5 0C13.1022 0 12.7206 0.158035 12.4393 0.43934C12.158 0.720644 12 1.10218 12 1.5C12 1.89782 12.158 2.27936 12.4393 2.56066C12.7206 2.84196 13.1022 3 13.5 3V6L9.77099 7.5C8.99326 7.67094 8.26988 8.03158 7.66527 8.54979C7.06067 9.068 6.59361 9.72769 6.3057 10.4701C6.01779 11.2125 5.91796 12.0146 6.0151 12.805C6.11225 13.5953 6.40336 14.3494 6.86249 15H22.5C22.8978 15 23.2793 15.158 23.5607 15.4393C23.842 15.7206 24 16.1022 24 16.5C24 16.8978 23.842 17.2794 23.5607 17.5607C23.2793 17.842 22.8978 18 22.5 18H6.86099C6.30776 18.9029 6.01497 19.9411 6.01497 21C6.01497 22.0589 6.30776 23.0971 6.86099 24H22.5C22.8978 24 23.2793 24.158 23.5607 24.4393C23.842 24.7206 24 25.1022 24 25.5C24 25.8978 23.842 26.2794 23.5607 26.5607C23.2793 26.842 22.8978 27 22.5 27H6.86099C6.33243 27.9072 6.05178 28.9376 6.04721 29.9875C6.04264 31.0375 6.31431 32.0702 6.83496 32.982C7.3556 33.8939 8.10691 34.6527 9.01349 35.1824C9.92007 35.7121 10.95 35.9941 12 36H24C25.213 35.9869 26.3936 35.607 27.3865 34.9102C28.3795 34.2135 29.1383 33.2325 29.5633 32.0963C29.9882 30.9601 30.0593 29.722 29.7673 28.5446C29.4752 27.3673 28.8337 26.3059 27.927 25.5C28.5669 24.9379 29.0796 24.2457 29.4309 23.4697C29.7821 22.6937 29.9638 21.8518 29.9638 21C29.9638 20.1482 29.7821 19.3063 29.4309 18.5303C29.0796 17.7543 28.5669 17.0621 27.927 16.5C28.5695 15.943 29.0865 15.256 29.4438 14.4845C29.8012 13.7129 29.9907 12.8743 30 12.024Z" fill="#2C445C"/>
</g>
<defs>
<clipPath id="clip0_322_1414">
<rect width="36" height="36" fill="white"/>
</clipPath>
</defs>
</svg>
