<svg width="50" height="50" viewBox="0 0 50 50" fill="none" xmlns="http://www.w3.org/2000/svg">
<path d="M32.5821 26.9545C30.8779 26.9545 30.08 27.3364 29.1563 27.7782C28.1993 28.2358 27.1153 28.7548 25.0562 28.7548C22.9971 28.7548 21.913 28.2372 20.9563 27.7798C20.2052 27.4206 19.5374 27.1038 18.3977 26.997L20.6839 43.9621C20.7867 44.712 21.1565 45.3997 21.7255 45.8989C22.2944 46.3981 23.0244 46.6753 23.7813 46.6797H33.748C34.5048 46.6753 35.2346 46.3981 35.8035 45.8989C36.3723 45.3998 36.7421 44.7123 36.845 43.9625L38.9028 28.692C37.5873 28.5376 36.7582 28.1363 36.008 27.7775C35.0841 27.3357 34.2864 26.9545 32.5821 26.9545Z" fill="#2C435B"/>
<path d="M9.95688 18.4996C10.5781 19.6021 11.4815 20.5195 12.5744 21.1576C13.6672 21.7958 14.9102 22.1316 16.1757 22.1308C17.4412 22.1299 18.6837 21.7924 19.7757 21.1528C20.8677 20.5133 21.7698 19.5947 22.3896 18.4913C23.5756 16.4271 23.6025 14.1135 22.4647 12.1378L16.1689 3.31875L9.87514 12.1109C8.73471 14.1026 8.76401 16.4289 9.95688 18.4996ZM16.1167 18.4954C17.0282 18.4942 17.9019 18.1316 18.5463 17.4871C19.1907 16.8426 19.5532 15.9688 19.5542 15.0574C19.5542 14.8502 19.6366 14.6515 19.7831 14.505C19.9296 14.3585 20.1283 14.2762 20.3355 14.2762C20.5427 14.2762 20.7414 14.3585 20.8879 14.505C21.0344 14.6515 21.1167 14.8502 21.1167 15.0574C21.1153 16.3831 20.588 17.6541 19.6507 18.5915C18.7133 19.5289 17.4424 20.0563 16.1167 20.0579C15.9095 20.0579 15.7108 19.9756 15.5643 19.8291C15.4178 19.6826 15.3355 19.4839 15.3355 19.2767C15.3355 19.0695 15.4178 18.8707 15.5643 18.7242C15.7108 18.5777 15.9095 18.4954 16.1167 18.4954Z" fill="#2C435B"/>
<path d="M40.9596 13.4766H24.6421C25.1011 15.332 24.8016 17.4534 23.7444 19.2933C23.1267 20.366 22.2893 21.2961 21.287 22.0227C20.2848 22.7493 19.1404 23.256 17.9287 23.5095L18.185 25.4108C19.8295 25.5074 20.7807 25.9622 21.6306 26.3687C22.5543 26.8105 23.3521 27.1929 25.0563 27.1929C26.7605 27.1929 27.5585 26.8128 28.4822 26.371C29.4393 25.9134 30.5232 25.3978 32.5822 25.3978C34.6412 25.3978 35.7254 25.9226 36.6822 26.3801C37.4041 26.7254 38.051 27.0441 39.1116 27.1627L40.9596 13.4766Z" fill="#2C435B"/>
</svg>
