<svg width="50" height="50" viewBox="0 0 50 50" fill="none" xmlns="http://www.w3.org/2000/svg">
<circle cx="25" cy="25" r="25" fill="#245611"/>
<path d="M35.9834 20.1965C36.1834 16.7846 31.8689 16.0346 29.4044 14.9123V12.2807C29.7534 12.2807 30.0881 12.1421 30.3348 11.8953C30.5816 11.6485 30.7202 11.3139 30.7202 10.9649C30.7202 10.6159 30.5816 10.2813 30.3348 10.0345C30.0881 9.78774 29.7534 9.64911 29.4044 9.64911H21.5097C21.1607 9.64911 20.826 9.78774 20.5793 10.0345C20.3325 10.2813 20.1939 10.6159 20.1939 10.9649C20.1939 11.3139 20.3325 11.6485 20.5793 11.8953C20.826 12.1421 21.1607 12.2807 21.5097 12.2807V14.9123L18.2386 16.2281C17.5564 16.378 16.9219 16.6944 16.3915 17.1489C15.8612 17.6035 15.4515 18.1822 15.1989 18.8334C14.9463 19.4847 14.8588 20.1883 14.944 20.8816C15.0292 21.5749 15.2846 22.2363 15.6873 22.807H29.4044C29.7534 22.807 30.0881 22.9456 30.3348 23.1924C30.5816 23.4391 30.7202 23.7738 30.7202 24.1228C30.7202 24.4718 30.5816 24.8064 30.3348 25.0532C30.0881 25.3 29.7534 25.4386 29.4044 25.4386H15.686C15.2007 26.2306 14.9439 27.1413 14.9439 28.0702C14.9439 28.999 15.2007 29.9098 15.686 30.7017H29.4044C29.7534 30.7017 30.0881 30.8404 30.3348 31.0871C30.5816 31.3339 30.7202 31.6686 30.7202 32.0175C30.7202 32.3665 30.5816 32.7012 30.3348 32.9479C30.0881 33.1947 29.7534 33.3333 29.4044 33.3333H15.686C15.2223 34.1292 14.9762 35.0329 14.9722 35.954C14.9681 36.875 15.2065 37.7809 15.6632 38.5807C16.1199 39.3806 16.7789 40.0462 17.5742 40.5109C18.3694 40.9755 19.2729 41.2229 20.1939 41.2281H30.7202C31.7842 41.2166 32.8198 40.8833 33.6909 40.2721C34.5619 39.6609 35.2275 38.8004 35.6003 37.8038C35.973 36.8071 36.0354 35.721 35.7792 34.6882C35.523 33.6555 34.9603 32.7244 34.1649 32.0175C34.7263 31.5244 35.176 30.9173 35.4841 30.2366C35.7922 29.5559 35.9516 28.8173 35.9516 28.0702C35.9516 27.323 35.7922 26.5844 35.4841 25.9037C35.176 25.223 34.7263 24.6159 34.1649 24.1228C34.7285 23.6342 35.182 23.0316 35.4955 22.3548C35.809 21.6779 35.9752 20.9423 35.9834 20.1965Z" fill="white"/>
</svg>
