<svg width="25" height="24" viewBox="0 0 25 24" fill="none" xmlns="http://www.w3.org/2000/svg">
<path d="M12.48 0C10.0117 0 7.59881 0.703788 5.54649 2.02236C3.49416 3.34094 1.89457 5.21509 0.949989 7.4078C0.00540741 9.60051 -0.241738 12.0133 0.239805 14.3411C0.721349 16.6689 1.90995 18.8071 3.65531 20.4853C5.40067 22.1635 7.6244 23.3064 10.0453 23.7694C12.4662 24.2324 14.9755 23.9948 17.2559 23.0866C19.5363 22.1783 21.4854 20.6402 22.8567 18.6668C24.2281 16.6935 24.96 14.3734 24.96 12C24.9564 8.81846 23.6404 5.76821 21.3007 3.51852C18.9611 1.26883 15.7888 0.00344108 12.48 0V0ZM13.52 11.879C13.5201 12.0485 13.4754 12.2153 13.3901 12.3636C13.3048 12.5119 13.1816 12.637 13.0322 12.727L9.03865 15.127C8.92256 15.1967 8.79332 15.2438 8.65832 15.2655C8.52331 15.2872 8.38518 15.2831 8.25182 15.2535C8.11845 15.2239 7.99246 15.1693 7.88103 15.0929C7.7696 15.0164 7.67493 14.9196 7.60241 14.808C7.52988 14.6964 7.48094 14.5721 7.45836 14.4423C7.43579 14.3125 7.44002 14.1797 7.47083 14.0514C7.50164 13.9232 7.55841 13.802 7.63791 13.6949C7.71741 13.5878 7.81808 13.4967 7.93417 13.427L11.44 11.325V7C11.44 6.73478 11.5496 6.48043 11.7446 6.29289C11.9397 6.10536 12.2042 6 12.48 6C12.7558 6 13.0204 6.10536 13.2154 6.29289C13.4104 6.48043 13.52 6.73478 13.52 7V11.879Z" fill="#245611"/>
</svg>
