<svg width="32" height="32" viewBox="0 0 32 32" fill="none" xmlns="http://www.w3.org/2000/svg">
<ellipse cx="13.2613" cy="14.7249" rx="13.2613" ry="14.7249" fill="#FDB441"/>
<ellipse cx="13.2712" cy="13.56" rx="10.6775" ry="10.6799" fill="#FEDF30"/>
<path d="M6.67062 14.725C6.67062 8.95742 10.385 4.15257 15.3014 3.0962C14.6415 2.95443 13.9586 2.88013 13.2614 2.88013C7.36982 2.88013 2.59375 8.18321 2.59375 14.725C2.59375 21.2667 7.36982 26.5699 13.2614 26.5699C13.9586 26.5699 14.6399 26.4948 15.2998 26.3529C10.3834 25.2965 6.67062 20.4926 6.67062 14.725Z" fill="#FED402"/>
<path d="M24.6151 15.3804C28.6946 15.3804 32.0017 19.1024 32.0001 23.6936C31.9984 28.2946 28.6334 32 24.5445 32H14.9253C12.1031 32 9.77335 29.4498 9.76395 26.2742C9.75448 23.0916 12.0442 20.5085 14.8699 20.5085C15.6424 20.5085 16.375 20.7017 17.0313 21.0473C17.2953 21.1863 17.6062 21.046 17.7097 20.7395C18.7673 17.6066 21.4598 15.3804 24.6151 15.3804Z" fill="#F9F3F1"/>
<path d="M12.0917 28.0433C12.0823 24.8607 14.372 22.2776 17.1977 22.2776C17.9702 22.2776 18.7028 22.4708 19.3591 22.8164C19.623 22.9554 19.934 22.8151 20.0375 22.5086C21.095 19.3756 23.7876 17.1494 26.9429 17.1494C27.9687 17.1494 28.9456 17.3849 29.8334 17.8103C28.4972 16.3089 26.6525 15.3804 24.6151 15.3804C21.4598 15.3804 18.7672 17.6066 17.7097 20.7395C17.6062 21.046 17.2952 21.1864 17.0313 21.0474C16.375 20.7017 15.6424 20.5086 14.8699 20.5086C12.0442 20.5086 9.75448 23.0916 9.76395 26.2742C9.77147 28.81 11.2584 30.9468 13.2942 31.7051C12.5486 30.7143 12.0959 29.4393 12.0917 28.0433Z" fill="#F3EAE6"/>
</svg>
