<svg width="34" height="34" viewBox="0 0 25 25" fill="none" xmlns="http://www.w3.org/2000/svg">
<path d="M7.81251 15.1042C9.82604 15.1042 11.4583 13.4719 11.4583 11.4583C11.4583 9.4448 9.82604 7.8125 7.81251 7.8125C5.79897 7.8125 4.16667 9.4448 4.16667 11.4583C4.16667 13.4719 5.79897 15.1042 7.81251 15.1042Z" fill="#245611"/>
<path d="M9.375 16.1458H6.25C5.00722 16.1472 3.81574 16.6415 2.93696 17.5203C2.05818 18.3991 1.56388 19.5905 1.5625 20.8333V21.875C1.56246 21.9434 1.5759 22.0111 1.60206 22.0743C1.62822 22.1376 1.66658 22.195 1.71496 22.2434C1.76333 22.2917 1.82076 22.3301 1.88397 22.3563C1.94718 22.3824 2.01493 22.3959 2.08333 22.3958H13.5417C13.6101 22.3959 13.6778 22.3824 13.741 22.3563C13.8042 22.3301 13.8617 22.2917 13.91 22.2434C13.9584 22.195 13.9968 22.1376 14.0229 22.0743C14.0491 22.0111 14.0625 21.9434 14.0625 21.875V20.8333C14.0611 19.5905 13.5668 18.3991 12.688 17.5203C11.8093 16.6415 10.6178 16.1472 9.375 16.1458Z" fill="#245611"/>
<path d="M21.875 2.60416H14.5833C14.1691 2.60461 13.7719 2.76938 13.479 3.0623C13.186 3.35523 13.0213 3.7524 13.0208 4.16666V9.37499C13.0213 9.78925 13.186 10.1864 13.479 10.4793C13.7719 10.7723 14.1691 10.937 14.5833 10.9375H16.1458V12.5C16.1459 12.5981 16.1736 12.6942 16.2259 12.7772C16.2781 12.8602 16.3528 12.9268 16.4412 12.9693C16.5296 13.0119 16.6282 13.0285 16.7257 13.0175C16.8231 13.0064 16.9155 12.9681 16.9922 12.9069L19.4539 10.9375H21.875C22.2893 10.937 22.6864 10.7723 22.9793 10.4793C23.2723 10.1864 23.437 9.78925 23.4375 9.37499V4.16666C23.437 3.7524 23.2723 3.35523 22.9793 3.0623C22.6864 2.76938 22.2893 2.60461 21.875 2.60416Z" fill="#245611"/>
</svg>
