<svg width="40" height="40" viewBox="0 0 40 40" fill="none" xmlns="http://www.w3.org/2000/svg">
<rect width="40" height="40" rx="12" fill="#2C445C"/>
<path d="M20.59 21.0001L18.29 23.2901C18.1963 23.3831 18.1219 23.4937 18.0711 23.6155C18.0203 23.7374 17.9942 23.8681 17.9942 24.0001C17.9942 24.1321 18.0203 24.2628 18.0711 24.3847C18.1219 24.5065 18.1963 24.6171 18.29 24.7101C18.383 24.8038 18.4936 24.8782 18.6154 24.929C18.7373 24.9798 18.868 25.0059 19 25.0059C19.132 25.0059 19.2627 24.9798 19.3846 24.929C19.5064 24.8782 19.617 24.8038 19.71 24.7101L23.71 20.7101C23.801 20.615 23.8724 20.5029 23.92 20.3801C24.02 20.1366 24.02 19.8636 23.92 19.6201C23.8724 19.4973 23.801 19.3852 23.71 19.2901L19.71 15.2901C19.6168 15.1969 19.5061 15.1229 19.3842 15.0724C19.2624 15.022 19.1319 14.996 19 14.996C18.8681 14.996 18.7376 15.022 18.6158 15.0724C18.4939 15.1229 18.3832 15.1969 18.29 15.2901C18.1968 15.3833 18.1228 15.494 18.0723 15.6159C18.0219 15.7377 17.9959 15.8682 17.9959 16.0001C17.9959 16.132 18.0219 16.2625 18.0723 16.3843C18.1228 16.5062 18.1968 16.6169 18.29 16.7101L20.59 19.0001H11C10.7348 19.0001 10.4804 19.1055 10.2929 19.293C10.1054 19.4805 10 19.7349 10 20.0001C10 20.2653 10.1054 20.5197 10.2929 20.7072C10.4804 20.8947 10.7348 21.0001 11 21.0001H20.59ZM20 10.0001C18.1311 9.99176 16.2972 10.5073 14.7065 11.4883C13.1157 12.4693 11.8317 13.8764 11 15.5501C10.8807 15.7888 10.861 16.0651 10.9454 16.3183C11.0298 16.5715 11.2113 16.7808 11.45 16.9001C11.6887 17.0194 11.965 17.0391 12.2182 16.9547C12.4714 16.8703 12.6807 16.6888 12.8 16.4501C13.4322 15.1734 14.3938 14.0887 15.5855 13.3081C16.7773 12.5275 18.1558 12.0792 19.5788 12.0097C21.0017 11.9402 22.4174 12.2519 23.6795 12.9126C24.9417 13.5733 26.0045 14.5591 26.7581 15.7681C27.5118 16.9771 27.9289 18.3653 27.9664 19.7895C28.0039 21.2136 27.6605 22.6219 26.9715 23.8689C26.2826 25.1159 25.2731 26.1563 24.0475 26.8825C22.8219 27.6088 21.4246 27.9946 20 28.0001C18.5089 28.0066 17.0462 27.5925 15.7797 26.8053C14.5132 26.0182 13.4944 24.89 12.84 23.5501C12.7207 23.3114 12.5114 23.1299 12.2582 23.0455C12.005 22.9611 11.7287 22.9808 11.49 23.1001C11.2513 23.2194 11.0698 23.4287 10.9854 23.6819C10.901 23.9351 10.9207 24.2114 11.04 24.4501C11.8328 26.0456 13.0375 27.4003 14.5295 28.3741C16.0214 29.348 17.7464 29.9055 19.5261 29.9891C21.3058 30.0727 23.0755 29.6793 24.6521 28.8496C26.2288 28.0199 27.5552 26.7841 28.4941 25.2699C29.433 23.7558 29.9503 22.0182 29.9925 20.2371C30.0347 18.456 29.6003 16.6959 28.7342 15.1389C27.8682 13.582 26.6018 12.2847 25.0663 11.3812C23.5307 10.4777 21.7816 10.0009 20 10.0001Z" fill="white"/>
</svg>
