<svg width="327" height="327" viewBox="0 0 327 327" fill="none" xmlns="http://www.w3.org/2000/svg">
<path d="M176.016 244.105C207.49 245.945 231.295 254.578 231.295 264.935C231.295 276.642 200.942 286.133 163.492 286.133C126.05 286.133 95.6965 276.642 95.6965 264.935C95.6965 254.578 119.502 245.953 150.968 244.105" stroke="#245611" stroke-width="12" stroke-miterlimit="10" stroke-linecap="round" stroke-linejoin="round"/>
<path d="M163.5 40.875C120.647 40.875 86.05 75.5125 86.05 118.227C86.05 131.658 91.1512 146.79 95.5003 155.309C109.782 183.292 162.642 261.543 162.642 261.543C163.034 262.197 163.982 262.197 164.367 261.543C164.367 261.543 217.226 183.3 231.508 155.309C235.857 146.79 240.958 131.658 240.958 118.227C240.95 75.5043 206.353 40.875 163.5 40.875Z" stroke="#191919" stroke-width="12" stroke-miterlimit="10" stroke-linecap="round" stroke-linejoin="round"/>
<path d="M162.527 79.8205C162.854 79.8124 163.173 79.8205 163.5 79.8205C184.657 79.8205 201.775 97.1189 201.481 118.349C201.195 138.811 184.502 155.505 164.04 155.791C142.809 156.085 125.511 138.967 125.511 117.81C125.511 97.1516 142 80.3356 162.527 79.8205Z" stroke="#245611" stroke-width="12" stroke-miterlimit="10" stroke-linecap="round" stroke-linejoin="round"/>
</svg>
