<svg xmlns="http://www.w3.org/2000/svg" xmlns:xlink="http://www.w3.org/1999/xlink" width="64" height="64" viewBox="0 0 64 64"><defs><path id="a" d="M.06 64V.04H64V64z"/></defs><g fill="none" fill-rule="evenodd"><mask id="b" fill="#fff"><use xlink:href="#a"/></mask><path fill="#FFFFFE" d="M33.371 14.391a1.5 1.5 0 0 0-2.742 0L16.55 46.068a1.5 1.5 0 0 0 2.042 1.951L32 41.315l13.408 6.704a1.506 1.506 0 0 0 1.707-.257 1.5 1.5 0 0 0 .335-1.694L33.371 14.391" mask="url(#b)"/><path fill="#4C5665" d="M47.115 47.762a1.495 1.495 0 0 1-1.707.257L32 41.315l-13.408 6.704a1.5 1.5 0 0 1-2.042-1.951l14.079-31.677a1.5 1.5 0 0 1 2.742 0L47.45 46.068a1.5 1.5 0 0 1-.335 1.694zM32 0C14.327 0 0 14.327 0 32c0 17.673 14.327 32 32 32 17.673 0 32-14.327 32-32C64 14.327 49.673 0 32 0z" mask="url(#b)"/></g></svg>