<svg width="76" height="76" viewBox="0 0 76 76" fill="none" xmlns="http://www.w3.org/2000/svg">
<circle cx="38" cy="38" r="37.5" fill="#D9D9D9" stroke="#2C445C"/>
<path d="M38 26.6667C42.0501 26.6667 45.3334 23.3834 45.3334 19.3333C45.3334 15.2832 42.0501 12 38 12C33.9499 12 30.6667 15.2832 30.6667 19.3333C30.6667 23.3834 33.9499 26.6667 38 26.6667Z" fill="#2C445C"/>
<path d="M45.3334 48.6667V43.3333C45.3334 42.96 45.6267 42.6667 46 42.6667C48.56 42.6667 50.6667 40.56 50.6667 38V32.6667C50.6667 30.1067 48.56 28 46 28H30C27.44 28 25.3334 30.1067 25.3334 32.6667V38C25.3334 40.56 27.44 42.6667 30 42.6667C30.3734 42.6667 30.6667 42.96 30.6667 43.3333V48.6667C30.6667 51.2267 32.7734 53.3333 35.3334 53.3333H40.6667C43.2267 53.3333 45.3334 51.2267 45.3334 48.6667Z" fill="#2C445C"/>
<path d="M61.3333 52.6667C61.3333 49.5467 58.0533 47.0933 51.8133 45.52C50.7467 45.2533 49.6533 45.8933 49.3867 46.96C49.12 48.0267 49.76 49.12 50.8267 49.3867C55.7867 50.64 57.3067 52.2133 57.3067 52.64C57.3067 53.8133 52.16 56.48 42.5333 57.1467C42.72 56.48 42.56 55.7333 42.0533 55.2267C41.28 54.4533 40 54.4533 39.2267 55.2267L36.56 57.8933C36.3733 58.08 36.2133 58.32 36.1333 58.5333C36.0267 58.7733 35.9733 59.0133 35.9733 59.3067C35.9733 59.6 36.0267 59.84 36.1333 60.08C36.24 60.32 36.3733 60.5333 36.56 60.72L39.2267 63.3867C39.6267 63.7867 40.1333 63.9733 40.64 63.9733C41.1467 63.9733 41.6533 63.7867 42.0533 63.3867C42.6667 62.7733 42.7733 61.8933 42.4533 61.1467C52.2133 60.5067 61.3067 57.7867 61.3067 52.64L61.3333 52.6667Z" fill="#2C445C"/>
<path d="M30.24 56.8533C22 55.8133 18.6667 53.4667 18.6667 52.6667C18.6667 52.24 20.2133 50.64 25.1467 49.4133C26.2133 49.1467 26.88 48.0533 26.5867 46.9867C26.32 45.92 25.2533 45.2533 24.16 45.5467C17.9467 47.12 14.64 49.5733 14.64 52.6933C14.64 58.3467 25.2 60.2933 29.7333 60.8533C29.8133 60.8533 29.8933 60.8533 30 60.8533C30.9867 60.8533 31.8667 60.1067 31.9733 59.0933C32.1067 58 31.3333 56.9867 30.24 56.8533Z" fill="#2C445C"/>
</svg>
