<svg width="36" height="36" viewBox="0 0 36 36" fill="none" xmlns="http://www.w3.org/2000/svg">
<path d="M18 0C14.4399 0 10.9598 1.05568 7.99974 3.03355C5.03966 5.01141 2.73255 7.82263 1.37018 11.1117C0.00779911 14.4008 -0.348661 18.02 0.345873 21.5116C1.04041 25.0033 2.75474 28.2106 5.27209 30.7279C7.78943 33.2453 10.9967 34.9596 14.4884 35.6541C17.98 36.3487 21.5992 35.9922 24.8883 34.6298C28.1774 33.2674 30.9886 30.9603 32.9665 28.0003C34.9443 25.0402 36 21.5601 36 18C36 15.6362 35.5344 13.2956 34.6298 11.1117C33.7253 8.92783 32.3994 6.94353 30.7279 5.27208C29.0565 3.60062 27.0722 2.27475 24.8883 1.37017C22.7044 0.465584 20.3638 0 18 0ZM19.8 32.274V30.6C19.8 30.1226 19.6104 29.6648 19.2728 29.3272C18.9352 28.9896 18.4774 28.8 18 28.8C17.5226 28.8 17.0648 28.9896 16.7272 29.3272C16.3896 29.6648 16.2 30.1226 16.2 30.6V32.274C13.032 31.8722 10.0873 30.4288 7.82926 28.1707C5.57118 25.9127 4.12775 22.968 3.72601 19.8H5.40001C5.8774 19.8 6.33523 19.6104 6.6728 19.2728C7.01036 18.9352 7.20001 18.4774 7.20001 18C7.20001 17.5226 7.01036 17.0648 6.6728 16.7272C6.33523 16.3896 5.8774 16.2 5.40001 16.2H3.72601C4.12775 13.032 5.57118 10.0873 7.82926 7.82925C10.0873 5.57117 13.032 4.12775 16.2 3.726V5.4C16.2 5.87739 16.3896 6.33522 16.7272 6.67279C17.0648 7.01036 17.5226 7.2 18 7.2C18.4774 7.2 18.9352 7.01036 19.2728 6.67279C19.6104 6.33522 19.8 5.87739 19.8 5.4V3.726C22.968 4.12775 25.9127 5.57117 28.1707 7.82925C30.4288 10.0873 31.8723 13.032 32.274 16.2H30.6C30.1226 16.2 29.6648 16.3896 29.3272 16.7272C28.9896 17.0648 28.8 17.5226 28.8 18C28.8 18.4774 28.9896 18.9352 29.3272 19.2728C29.6648 19.6104 30.1226 19.8 30.6 19.8H32.274C31.8723 22.968 30.4288 25.9127 28.1707 28.1707C25.9127 30.4288 22.968 31.8722 19.8 32.274ZM23.652 9.99L14.652 13.806C14.2324 13.9878 13.8978 14.3224 13.716 14.742L9.90001 23.742C9.75824 24.0721 9.71849 24.437 9.78585 24.7899C9.85321 25.1427 10.0246 25.4674 10.278 25.722C10.6103 26.0611 11.0632 26.2552 11.538 26.262C11.7871 26.2622 12.033 26.2069 12.258 26.1L21.258 22.284C21.6776 22.1022 22.0122 21.7676 22.194 21.348L26.01 12.348C26.1491 12.0182 26.1867 11.6543 26.118 11.303C26.0493 10.9517 25.8774 10.6289 25.6243 10.3757C25.3711 10.1226 25.0483 9.95072 24.697 9.88201C24.3457 9.8133 23.9818 9.85089 23.652 9.99ZM19.17 19.17L15.066 20.97L16.866 16.866L20.97 15.066L19.17 19.17Z" fill="#2C445C"/>
</svg>
