<svg width="150" height="150" viewBox="0 0 150 150" fill="none" xmlns="http://www.w3.org/2000/svg">
<circle cx="75" cy="75" r="73" fill="#FAFAFA" stroke="#245611" stroke-width="4"/>
<g clip-path="url(#clip0_541_667)">
<path d="M87.3959 49.4792C91.64 49.4792 95.0834 46.0498 95.0834 41.8229C95.0834 37.596 91.64 34.1667 87.3959 34.1667C83.1517 34.1667 79.7084 37.596 79.7084 41.8229C79.7084 46.0498 83.1517 49.4792 87.3959 49.4792ZM91.7521 59.6875L81.8545 51.9036C79.0838 49.7344 75.1759 49.7025 72.3892 51.8558L59.0802 62.096C54.1635 65.8922 54.5158 73.389 59.7689 76.7067L69.4584 82.8317V100.521C69.4584 103.344 71.7486 105.625 74.5834 105.625C77.4181 105.625 79.7084 103.344 79.7084 100.521V80.1042C79.7084 78.3975 78.8595 76.8024 77.4342 75.8613L70.5795 71.3154L80.2369 63.5794L86.7552 68.7793C87.6681 69.4971 88.7892 69.8958 89.9584 69.8958H100.208C103.043 69.8958 105.333 67.6149 105.333 64.7917C105.333 61.9684 103.043 59.6875 100.208 59.6875H91.7521ZM55.3646 95.4167C55.3646 101.765 50.2076 106.901 43.8334 106.901C37.4592 106.901 32.3021 101.765 32.3021 95.4167C32.3021 89.0684 37.4592 83.9323 43.8334 83.9323C50.2076 83.9323 55.3646 89.0684 55.3646 95.4167ZM64.3334 95.4167C64.3334 84.1396 55.1564 75 43.8334 75C32.5103 75 23.3334 84.1396 23.3334 95.4167C23.3334 106.694 32.5103 115.833 43.8334 115.833C55.1564 115.833 64.3334 106.694 64.3334 95.4167ZM116.865 95.4167C116.865 101.765 111.708 106.901 105.333 106.901C98.9592 106.901 93.8021 101.765 93.8021 95.4167C93.8021 89.0684 98.9592 83.9323 105.333 83.9323C111.708 83.9323 116.865 89.0684 116.865 95.4167ZM125.833 95.4167C125.833 84.1396 116.656 75 105.333 75C94.0103 75 84.8334 84.1396 84.8334 95.4167C84.8334 106.694 94.0103 115.833 105.333 115.833C116.656 115.833 125.833 106.694 125.833 95.4167Z" fill="#245611"/>
</g>
<defs>
<clipPath id="clip0_541_667">
<rect width="102.5" height="81.6667" fill="white" transform="translate(23.3334 34.1667)"/>
</clipPath>
</defs>
</svg>
