<svg width="34" height="34" viewBox="0 0 25 25" fill="none" xmlns="http://www.w3.org/2000/svg">
<path d="M21.3542 16.5417L18.0938 6.12499C17.5833 4.48957 16.0833 3.38541 14.3646 3.38541H10.625C8.90625 3.38541 7.40625 4.48957 6.89583 6.12499L3.64583 16.5417C3.27083 17.7396 3.47917 19.0104 4.22917 20.0208C4.97917 21.0312 6.125 21.6146 7.375 21.6146H17.625C18.8854 21.6146 20.0313 21.0312 20.7708 20.0208C21.5104 19.0104 21.7292 17.7396 21.3542 16.5417ZM11.7188 6.24999C11.7188 5.82291 12.0729 5.46874 12.5 5.46874C12.9271 5.46874 13.2813 5.82291 13.2813 6.24999V7.29166C13.2813 7.71874 12.9271 8.07291 12.5 8.07291C12.0729 8.07291 11.7188 7.71874 11.7188 7.29166V6.24999ZM11.7188 10.4167C11.7188 9.98957 12.0729 9.63541 12.5 9.63541C12.9271 9.63541 13.2813 9.98957 13.2813 10.4167V11.4583C13.2813 11.8854 12.9271 12.2396 12.5 12.2396C12.0729 12.2396 11.7188 11.8854 11.7188 11.4583V10.4167ZM16.1042 20.0104C15.7292 20.4896 15.1042 20.6875 14.5104 20.5L12.4583 19.8437L10.4688 20.5C10.3229 20.5521 10.1667 20.5729 10.0104 20.5729C9.57292 20.5729 9.15625 20.375 8.875 20.0104C8.51042 19.5417 8.47917 18.9167 8.79167 18.4167L11.2604 14.4687C11.7917 13.625 13.1875 13.625 13.7083 14.4687L16.1771 18.4167C16.4896 18.9167 16.4583 19.5417 16.0938 20.0104H16.1042Z" fill="#245611"/>
<path d="M10.3542 18.9062L12.0625 18.3646C12.3542 18.2708 12.6667 18.2708 12.9583 18.3646L14.6667 18.9062L12.5208 15.4688L10.375 18.9062H10.3542Z" fill="#245611"/>
</svg>
