<svg width="25" height="25" viewBox="0 0 25 25" fill="none" xmlns="http://www.w3.org/2000/svg">
<g clip-path="url(#clip0_793_656)">
<path d="M12.5 0C10.0277 0 7.61099 0.733112 5.55538 2.10663C3.49976 3.48015 1.89761 5.43238 0.951511 7.71646C0.00541608 10.0005 -0.242126 12.5139 0.24019 14.9386C0.722505 17.3634 1.91301 19.5907 3.66117 21.3388C5.40933 23.087 7.63661 24.2775 10.0614 24.7598C12.4861 25.2421 14.9995 24.9946 17.2835 24.0485C19.5676 23.1024 21.5199 21.5002 22.8934 19.4446C24.2669 17.389 25 14.9723 25 12.5C24.9964 9.18589 23.6783 6.00855 21.3349 3.66512C18.9915 1.3217 15.8141 0.00358446 12.5 0V0ZM16.6667 13.5417H13.5417V16.6667C13.5417 16.9429 13.4319 17.2079 13.2366 17.4032C13.0412 17.5986 12.7763 17.7083 12.5 17.7083C12.2237 17.7083 11.9588 17.5986 11.7634 17.4032C11.5681 17.2079 11.4583 16.9429 11.4583 16.6667V13.5417H8.33334C8.05707 13.5417 7.79212 13.4319 7.59677 13.2366C7.40142 13.0412 7.29167 12.7763 7.29167 12.5C7.29167 12.2237 7.40142 11.9588 7.59677 11.7634C7.79212 11.5681 8.05707 11.4583 8.33334 11.4583H11.4583V8.33333C11.4583 8.05707 11.5681 7.79211 11.7634 7.59676C11.9588 7.40141 12.2237 7.29167 12.5 7.29167C12.7763 7.29167 13.0412 7.40141 13.2366 7.59676C13.4319 7.79211 13.5417 8.05707 13.5417 8.33333V11.4583H16.6667C16.9429 11.4583 17.2079 11.5681 17.4032 11.7634C17.5986 11.9588 17.7083 12.2237 17.7083 12.5C17.7083 12.7763 17.5986 13.0412 17.4032 13.2366C17.2079 13.4319 16.9429 13.5417 16.6667 13.5417Z" fill="#245611"/>
</g>
<defs>
<clipPath id="clip0_793_656">
<rect width="25" height="25" fill="white"/>
</clipPath>
</defs>
</svg>
