<svg width="34" height="34" viewBox="0 0 34 34" fill="none" xmlns="http://www.w3.org/2000/svg">
<g clip-path="url(#clip0_322_1065)">
<path d="M22.1609 11.8292C22.3672 12.0312 22.5181 12.2828 22.5992 12.5599C22.6803 12.837 22.6889 13.1302 22.6242 13.4116L18.8728 23.3892C18.8006 23.5916 18.6677 23.7669 18.4923 23.8911C18.3169 24.0153 18.1075 24.0824 17.8925 24.0833C17.6994 24.0899 17.5082 24.0434 17.3397 23.949C17.1711 23.8546 17.0316 23.7159 16.9363 23.5478L15.6499 19.3318C15.5788 19.098 15.4485 18.8865 15.2715 18.718C15.0945 18.5494 14.8769 18.4295 14.6398 18.3699L10.6477 17.3783C10.4376 17.3068 10.2546 17.1722 10.1237 16.993C9.99278 16.8138 9.9203 16.5985 9.91611 16.3766C9.91193 16.1547 9.97625 15.9369 10.1003 15.7529C10.2244 15.5689 10.4022 15.4275 10.6094 15.3482L20.6111 11.3815C20.8861 11.316 21.1734 11.3228 21.445 11.4013C21.7165 11.4797 21.9632 11.6271 22.1609 11.8292ZM34 17C34 20.3623 33.003 23.6491 31.135 26.4447C29.267 29.2403 26.612 31.4193 23.5056 32.706C20.3993 33.9926 16.9811 34.3293 13.6835 33.6734C10.3858 33.0174 7.35668 31.3983 4.97919 29.0208C2.6017 26.6433 0.982607 23.6142 0.326658 20.3165C-0.329291 17.0189 0.00736586 13.6007 1.29406 10.4944C2.58075 7.38804 4.75968 4.733 7.55531 2.86502C10.3509 0.997033 13.6377 0 17 0C21.5072 0.00487487 25.8284 1.79751 29.0154 4.98457C32.2025 8.17163 33.9951 12.4928 34 17ZM24.1584 9.82033C23.6015 9.26021 22.9065 8.85724 22.1437 8.65224C21.381 8.44724 20.5776 8.4475 19.8149 8.653C19.7597 8.66858 9.57526 12.7103 9.57526 12.7103C8.81802 13.0057 8.17165 13.5296 7.72603 14.2094C7.28041 14.8891 7.05769 15.6908 7.08886 16.503C7.12002 17.3152 7.40352 18.0975 7.89992 18.7411C8.39632 19.3847 9.08095 19.8576 9.85859 20.094L13.1821 20.9256L14.2772 24.5013C14.5685 25.2159 15.0664 25.8275 15.7071 26.2577C16.3478 26.688 17.1023 26.9174 17.8741 26.9167H17.9364C18.7199 26.9066 19.482 26.6594 20.1223 26.2078C20.7626 25.7562 21.251 25.1212 21.5234 24.3865C21.5234 24.3865 25.3385 14.2361 25.3484 14.1865C25.5529 13.4184 25.5504 12.61 25.3414 11.8432C25.1324 11.0763 24.7243 10.3784 24.1584 9.82033Z" fill="#2C445C"/>
</g>
<defs>
<clipPath id="clip0_322_1065">
<rect width="34" height="34" fill="white"/>
</clipPath>
</defs>
</svg>
