<svg width="30" height="24" viewBox="0 0 30 24" fill="none" xmlns="http://www.w3.org/2000/svg">
<g clip-path="url(#clip0_322_1032)">
<path d="M18.75 4.5C19.9922 4.5 21 3.49219 21 2.25C21 1.00781 19.9922 0 18.75 0C17.5078 0 16.5 1.00781 16.5 2.25C16.5 3.49219 17.5078 4.5 18.75 4.5ZM20.025 7.5L17.1281 5.2125C16.3172 4.575 15.1734 4.56563 14.3578 5.19844L10.4625 8.20781C9.02344 9.32344 9.12656 11.5266 10.6641 12.5016L13.5 14.3016V19.5C13.5 20.3297 14.1703 21 15 21C15.8297 21 16.5 20.3297 16.5 19.5V13.5C16.5 12.9984 16.2516 12.5297 15.8344 12.2531L13.8281 10.9172L16.6547 8.64375L18.5625 10.1719C18.8297 10.3828 19.1578 10.5 19.5 10.5H22.5C23.3297 10.5 24 9.82969 24 9C24 8.17031 23.3297 7.5 22.5 7.5H20.025ZM9.375 18C9.375 19.8656 7.86562 21.375 6 21.375C4.13438 21.375 2.625 19.8656 2.625 18C2.625 16.1344 4.13438 14.625 6 14.625C7.86562 14.625 9.375 16.1344 9.375 18ZM12 18C12 14.6859 9.31406 12 6 12C2.68594 12 0 14.6859 0 18C0 21.3141 2.68594 24 6 24C9.31406 24 12 21.3141 12 18ZM27.375 18C27.375 19.8656 25.8656 21.375 24 21.375C22.1344 21.375 20.625 19.8656 20.625 18C20.625 16.1344 22.1344 14.625 24 14.625C25.8656 14.625 27.375 16.1344 27.375 18ZM30 18C30 14.6859 27.3141 12 24 12C20.6859 12 18 14.6859 18 18C18 21.3141 20.6859 24 24 24C27.3141 24 30 21.3141 30 18Z" fill="black"/>
</g>
<defs>
<clipPath id="clip0_322_1032">
<rect width="30" height="24" fill="white"/>
</clipPath>
</defs>
</svg>
