<svg width="30" height="36" viewBox="0 0 30 36" fill="none" xmlns="http://www.w3.org/2000/svg">
<path d="M26.738 11.9535L12.431 1.46254C11.3135 0.644269 9.99133 0.15141 8.6109 0.0385961C7.23048 -0.0742181 5.84578 0.197419 4.61029 0.823398C3.3748 1.44938 2.33677 2.40525 1.61127 3.58505C0.885774 4.76486 0.501142 6.12252 0.500009 7.50754V28.5C0.497854 29.8864 0.880476 31.2462 1.60528 32.428C2.33009 33.6099 3.36865 34.5673 4.60535 35.1939C5.84205 35.8205 7.22838 36.0916 8.61002 35.9771C9.99166 35.8625 11.3144 35.3668 12.431 34.545L26.738 24.054C27.6873 23.3574 28.4593 22.447 28.9913 21.3965C29.5234 20.346 29.8007 19.1851 29.8007 18.0075C29.8007 16.83 29.5234 15.669 28.9913 14.6186C28.4593 13.5681 27.6873 12.6577 26.738 11.961V11.9535Z" fill="#2C445C"/>
</svg>
