<svg width="24" height="24" viewBox="0 0 24 24" fill="none" xmlns="http://www.w3.org/2000/svg">
<g clip-path="url(#clip0_311_886)">
<path d="M14.1211 12.0005L23.5608 2.56186C24.1467 1.9759 24.1467 1.02587 23.5608 0.439959C22.9748 -0.146002 22.0248 -0.146002 21.4389 0.439959L12.0002 9.87954L2.56161 0.439959C1.97565 -0.146002 1.02563 -0.146002 0.439714 0.439959C-0.146199 1.02592 -0.146246 1.97594 0.439714 2.56186L9.8793 12.0005L0.439714 21.4391C-0.146246 22.0251 -0.146246 22.9751 0.439714 23.561C1.02567 24.1469 1.9757 24.147 2.56161 23.561L12.0002 14.1214L21.4388 23.561C22.0248 24.147 22.9748 24.147 23.5607 23.561C24.1467 22.975 24.1467 22.025 23.5607 21.4391L14.1211 12.0005Z" fill="#245611"/>
</g>
<defs>
<clipPath id="clip0_311_886">
<rect width="24" height="24" rx="5" fill="white"/>
</clipPath>
</defs>
</svg>
