<svg width="43" height="41" viewBox="0 0 43 41" fill="none" xmlns="http://www.w3.org/2000/svg">
<g clip-path="url(#clip0_322_1078)">
<path d="M22.7245 34.0635H20.2756V41.0001H22.7245V34.0635Z" fill="#FFDE55"/>
<path d="M22.7245 0H20.2756V6.93661H22.7245V0Z" fill="#FFDE55"/>
<path d="M5.4315 34.1702L7.16309 35.8213L12.3072 30.9165L10.5756 29.2654L5.4315 34.1702Z" fill="#FCEBA2"/>
<path d="M30.6929 10.0836L32.4244 11.7346L37.5685 6.82981L35.8369 5.17876L30.6929 10.0836Z" fill="#FCEBA2"/>
<path d="M7.27498 19.3325H0V21.6675H7.27498V19.3325Z" fill="#FFDE55"/>
<path d="M43 19.3325H35.725V21.6675H43V19.3325Z" fill="#FFDE55"/>
<path d="M7.1631 5.17879L5.43152 6.82983L10.5756 11.7346L12.3072 10.0836L7.1631 5.17879Z" fill="#FCEBA2"/>
<path d="M32.4245 29.2652L30.6929 30.9163L35.8369 35.8211L37.5685 34.17L32.4245 29.2652Z" fill="#FCEBA2"/>
<path d="M21.4997 31.6362C27.9501 31.6362 33.1792 26.6503 33.1792 20.5C33.1792 14.3496 27.9501 9.36377 21.4997 9.36377C15.0494 9.36377 9.82031 14.3496 9.82031 20.5C9.82031 26.6503 15.0494 31.6362 21.4997 31.6362Z" fill="#FCEBA2"/>
<path d="M21.4997 29.0444C26.4488 29.0444 30.4608 25.219 30.4608 20.5001C30.4608 15.7812 26.4488 11.9558 21.4997 11.9558C16.5506 11.9558 12.5386 15.7812 12.5386 20.5001C12.5386 25.219 16.5506 29.0444 21.4997 29.0444Z" fill="#FFDE55"/>
</g>
<defs>
<clipPath id="clip0_322_1078">
<rect width="43" height="41" fill="white"/>
</clipPath>
</defs>
</svg>
