<svg width="45" height="45" viewBox="0 0 45 45" fill="none" xmlns="http://www.w3.org/2000/svg">
<circle cx="22.5" cy="22.5" r="22.5" fill="#2C445C"/>
<circle cx="22.5" cy="22.5" r="22" stroke="#245611" stroke-opacity="0.55"/>
<g clip-path="url(#clip0_924_1857)">
<path d="M19.5542 11.2198L15.5136 15.2604C15.3239 15.4569 15.2189 15.72 15.2212 15.9931C15.2236 16.2663 15.3332 16.5275 15.5263 16.7206C15.7194 16.9138 15.9807 17.0233 16.2538 17.0257C16.5269 17.0281 16.7901 16.9231 16.9865 16.7333L21.0271 12.6927C21.1496 12.5727 21.286 12.4678 21.4334 12.3802C21.4334 12.3958 21.4251 12.4083 21.4251 12.424L21.4584 28.7615C21.4584 29.0377 21.5681 29.3027 21.7635 29.498C21.9588 29.6934 22.2238 29.8031 22.5001 29.8031C22.7763 29.8031 23.0413 29.6934 23.2366 29.498C23.432 29.3027 23.5417 29.0377 23.5417 28.7615L23.5084 12.4302C23.5084 12.401 23.4938 12.3771 23.4917 12.349C23.6679 12.4414 23.83 12.5585 23.973 12.6969L28.0136 16.7375C28.1097 16.837 28.2246 16.9164 28.3517 16.9709C28.4788 17.0255 28.6155 17.0543 28.7538 17.0555C28.8921 17.0567 29.0293 17.0303 29.1573 16.9779C29.2853 16.9256 29.4016 16.8482 29.4994 16.7504C29.5972 16.6526 29.6746 16.5363 29.727 16.4083C29.7793 16.2803 29.8057 16.1431 29.8045 16.0048C29.8033 15.8665 29.7745 15.7298 29.72 15.6027C29.6654 15.4756 29.586 15.3607 29.4865 15.2646L25.4459 11.224C24.6645 10.4428 23.6049 10.004 22.5001 10.004C21.3952 10.004 20.3356 10.4428 19.5542 11.224V11.2198Z" fill="white"/>
<path d="M32.9167 27.7083V29.7917C32.9167 30.6205 32.5874 31.4153 32.0014 32.0014C31.4153 32.5874 30.6205 32.9167 29.7917 32.9167L15.2083 32.9167C14.3795 32.9167 13.5847 32.5874 12.9986 32.0014C12.4126 31.4153 12.0833 30.6205 12.0833 29.7917V27.7083C12.0833 27.4321 11.9736 27.1671 11.7782 26.9718C11.5829 26.7764 11.3179 26.6667 11.0417 26.6667C10.7654 26.6667 10.5004 26.7764 10.3051 26.9718C10.1097 27.1671 10 27.4321 10 27.7083V29.7917C10.0017 31.1725 10.5509 32.4963 11.5273 33.4727C12.5037 34.4491 13.8275 34.9983 15.2083 35L29.7917 35C31.1725 34.9983 32.4963 34.4491 33.4727 33.4727C34.4491 32.4963 34.9983 31.1725 35 29.7917V27.7083C35 27.4321 34.8903 27.1671 34.6949 26.9718C34.4996 26.7764 34.2346 26.6667 33.9583 26.6667C33.6821 26.6667 33.4171 26.7764 33.2218 26.9718C33.0264 27.1671 32.9167 27.4321 32.9167 27.7083Z" fill="white"/>
</g>
<defs>
<clipPath id="clip0_924_1857">
<rect width="25" height="25" fill="white" transform="translate(10 35) rotate(-90)"/>
</clipPath>
</defs>
</svg>
