<svg width="57" height="57" viewBox="0 0 57 57" fill="none" xmlns="http://www.w3.org/2000/svg">
<circle cx="28.5" cy="28.5" r="28.5" fill="#245611"/>
<path d="M41.021 23.024C41.249 19.1345 36.3305 18.2795 33.521 17V14C33.9188 14 34.3003 13.842 34.5816 13.5607C34.8629 13.2794 35.021 12.8978 35.021 12.5C35.021 12.1022 34.8629 11.7206 34.5816 11.4393C34.3003 11.158 33.9188 11 33.521 11H24.521C24.1231 11 23.7416 11.158 23.4603 11.4393C23.179 11.7206 23.021 12.1022 23.021 12.5C23.021 12.8978 23.179 13.2794 23.4603 13.5607C23.7416 13.842 24.1231 14 24.521 14V17L20.792 18.5C20.0142 18.6709 19.2908 19.0316 18.6862 19.5498C18.0816 20.068 17.6146 20.7277 17.3267 21.4701C17.0388 22.2125 16.9389 23.0146 17.0361 23.805C17.1332 24.5953 17.4243 25.3494 17.8835 26H33.521C33.9188 26 34.3003 26.158 34.5816 26.4393C34.8629 26.7206 35.021 27.1022 35.021 27.5C35.021 27.8978 34.8629 28.2794 34.5816 28.5607C34.3003 28.842 33.9188 29 33.521 29H17.882C17.3287 29.9029 17.0359 30.9411 17.0359 32C17.0359 33.0589 17.3287 34.0971 17.882 35H33.521C33.9188 35 34.3003 35.158 34.5816 35.4393C34.8629 35.7206 35.021 36.1022 35.021 36.5C35.021 36.8978 34.8629 37.2794 34.5816 37.5607C34.3003 37.842 33.9188 38 33.521 38H17.882C17.3534 38.9072 17.0727 39.9376 17.0682 40.9875C17.0636 42.0375 17.3353 43.0702 17.8559 43.982C18.3766 44.8939 19.1279 45.6527 20.0345 46.1824C20.941 46.7121 21.971 46.9941 23.021 47H35.021C36.2339 46.9869 37.4145 46.607 38.4075 45.9102C39.4005 45.2135 40.1593 44.2325 40.5842 43.0963C41.0092 41.9601 41.0803 40.722 40.7882 39.5446C40.4962 38.3673 39.8546 37.3059 38.948 36.5C39.5879 35.9379 40.1006 35.2457 40.4518 34.4697C40.803 33.6937 40.9847 32.8518 40.9847 32C40.9847 31.1482 40.803 30.3063 40.4518 29.5303C40.1006 28.7543 39.5879 28.0621 38.948 27.5C39.5904 26.943 40.1074 26.256 40.4648 25.4845C40.8221 24.7129 41.0117 23.8743 41.021 23.024Z" fill="white"/>
</svg>
