<svg width="34" height="34" viewBox="0 0 25 25" fill="none" xmlns="http://www.w3.org/2000/svg">
<path d="M15.6087 10.0055C15.6837 10.0013 15.7587 10 15.8332 10C18.0582 10 19.943 11.4625 20.589 13.4748C21.7602 12.408 22.5 10.8758 22.5 9.1665C22.5 5.94475 19.8877 3.33325 16.6675 3.33325C14.0202 3.33325 11.7872 5.0985 11.0742 7.51475C12.9005 7.59275 14.5792 8.53175 15.6087 10.0055Z" fill="#245611"/>
<path d="M19.1667 15C19.1667 13.1593 17.675 11.6668 15.8333 11.6668C15.442 11.6668 15.0715 11.7463 14.7225 11.8708C14.1285 10.2935 12.619 9.1665 10.8333 9.1665C8.532 9.1665 6.66675 11.032 6.66675 13.3333C4.36525 13.3333 2.5 15.1985 2.5 17.5C2.5 19.8015 4.36525 21.6668 6.66675 21.6668H19.1667C21.0075 21.6668 22.5 20.174 22.5 18.3333C22.5 16.4925 21.0075 15 19.1667 15Z" fill="#245611"/>
</svg>
