<svg width="25" height="24" viewBox="0 0 25 24" fill="none" xmlns="http://www.w3.org/2000/svg">
<path d="M13.892 24C11.932 24 10.055 23.992 9.401 23.974C9.11934 23.9651 8.83957 23.9246 8.567 23.853C7.86859 23.6595 7.24746 23.254 6.78935 22.6925C6.33123 22.1309 6.05873 21.441 6.00945 20.718C5.96017 19.995 6.13655 19.2745 6.51424 18.656C6.89193 18.0375 7.4523 17.5514 8.118 17.265C7.93902 16.3609 7.95847 15.4288 8.175 14.533C8.47839 13.3063 9.16131 12.2068 10.1264 11.3911C11.0915 10.5754 12.2894 10.0852 13.5495 9.99046C14.8096 9.89569 16.0674 10.2012 17.1436 10.8633C18.2198 11.5255 19.0595 12.5105 19.543 13.678C19.679 14.004 20.306 14.147 20.306 14.147C21.5621 14.4893 22.6358 15.3068 23.3 16.4266C23.9642 17.5463 24.1668 18.8805 23.865 20.147C23.6554 21.0478 23.1977 21.8718 22.5437 22.5257C21.8898 23.1797 21.0658 23.6374 20.165 23.847C19.8157 23.9266 19.4592 23.9705 19.101 23.978C18.229 23.99 16.013 24 13.892 24ZM8.987 9.755C9.97649 8.94973 11.1457 8.39508 12.3953 8.13812C13.6449 7.88117 14.9381 7.92949 16.165 8.279C16.4152 8.34609 16.6764 8.36207 16.9329 8.32599C17.1894 8.28991 17.436 8.20251 17.658 8.069L20.105 6.64C20.2145 6.56744 20.3087 6.47403 20.3821 6.36508C20.4555 6.25614 20.5068 6.1338 20.5329 6.00505C20.559 5.8763 20.5596 5.74367 20.5345 5.61471C20.5093 5.48576 20.4591 5.36302 20.3865 5.2535C20.3139 5.14398 20.2205 5.04982 20.1116 4.9764C20.0026 4.90298 19.8803 4.85174 19.7516 4.8256C19.6228 4.79946 19.4902 4.79893 19.3612 4.82405C19.2323 4.84917 19.1095 4.89944 19 4.972L16.359 6.722C15.805 7.003 15.516 6.28 15.089 6.005L16.932 2.859C16.9984 2.7456 17.0418 2.62024 17.0597 2.49007C17.0777 2.35991 17.0698 2.22748 17.0365 2.10036C17.0033 1.97323 16.9453 1.8539 16.866 1.74918C16.7866 1.64445 16.6874 1.55638 16.574 1.49C16.4606 1.42362 16.3352 1.38022 16.2051 1.36228C16.0749 1.34435 15.9425 1.35223 15.8154 1.38547C15.6882 1.41871 15.5689 1.47667 15.4642 1.55603C15.3595 1.63539 15.2714 1.7346 15.205 1.848L13.384 4.963C12.9394 4.78059 12.4749 4.65103 12 4.577V1C12 0.734784 11.8946 0.48043 11.7071 0.292893C11.5196 0.105357 11.2652 0 11 0C10.7348 0 10.4804 0.105357 10.2929 0.292893C10.1054 0.48043 10 0.734784 10 1V4.58C9.54641 4.65379 9.10193 4.77547 8.674 4.943L6.831 1.834C6.76403 1.721 6.67545 1.62229 6.57033 1.54352C6.46521 1.46475 6.3456 1.40746 6.21834 1.37491C5.96132 1.30918 5.68872 1.34824 5.4605 1.4835C5.23228 1.61876 5.06714 1.83914 5.00141 2.09616C4.93568 2.35318 4.97474 2.62578 5.11 2.854L6.944 5.947C6.59682 6.22604 6.27825 6.53891 5.993 6.881L2.893 5.067C2.77958 4.99551 2.65293 4.94756 2.52061 4.926C2.38828 4.90444 2.25296 4.90971 2.12271 4.94149C1.99246 4.97328 1.86993 5.03093 1.76241 5.11102C1.65489 5.19112 1.56457 5.29201 1.49683 5.40771C1.42908 5.52341 1.3853 5.65155 1.36807 5.78452C1.35085 5.91748 1.36054 6.05255 1.39657 6.18169C1.43259 6.31083 1.49422 6.43141 1.57779 6.53626C1.66135 6.6411 1.76515 6.72808 1.883 6.792L4.962 8.6C4.77865 9.04991 4.64876 9.51979 4.575 10H1C0.734784 10 0.48043 10.1054 0.292893 10.2929C0.105357 10.4804 0 10.7348 0 11C0 11.2652 0.105357 11.5196 0.292893 11.7071C0.48043 11.8946 0.734784 12 1 12H4.576C4.62187 12.2983 4.6887 12.5931 4.776 12.882C4.79371 12.9926 4.77377 13.106 4.71937 13.2039C4.66497 13.3018 4.57927 13.3786 4.476 13.422L1.768 15.034C1.54005 15.1697 1.37532 15.3903 1.31006 15.6474C1.24479 15.9045 1.28434 16.177 1.42 16.405C1.55566 16.633 1.77631 16.7977 2.03343 16.8629C2.29054 16.9282 2.56305 16.8887 2.791 16.753L5.381 15.24C5.58636 15.1235 5.76586 14.9665 5.90856 14.7784C6.05126 14.5903 6.15416 14.3751 6.211 14.146C6.62075 12.4137 7.59787 10.8681 8.987 9.755Z" fill="#245611"/>
</svg>
