<svg width="10" height="12" viewBox="0 0 10 12" fill="none" xmlns="http://www.w3.org/2000/svg">
<path d="M9.84278 9.39647L6.34077 0.991658C6.21579 0.693529 6.02424 0.442933 5.78749 0.267829C5.55074 0.0927247 5.27811 0 5 0C4.7219 0 4.44926 0.0927247 4.21251 0.267829C3.97576 0.442933 3.78421 0.693529 3.65923 0.991658L0.157225 9.39647C0.0196503 9.72817 -0.0293271 10.1027 0.01697 10.469C0.0632671 10.8353 0.202586 11.1756 0.415931 11.4434C0.629276 11.7113 0.906265 11.8936 1.20913 11.9656C1.512 12.0377 1.82601 11.9958 2.10834 11.8459L4.79488 10.4051C4.85984 10.3724 4.92957 10.3555 5 10.3555C5.07044 10.3555 5.14017 10.3724 5.20512 10.4051L7.89166 11.8459C8.17399 11.9958 8.488 12.0377 8.79087 11.9656C9.09374 11.8936 9.37072 11.7113 9.58407 11.4434C9.79741 11.1756 9.93673 10.8353 9.98303 10.469C10.0293 10.1027 9.98035 9.72817 9.84278 9.39647ZM8.8422 10.5972C8.77079 10.6864 8.67816 10.747 8.57697 10.7706C8.47577 10.7943 8.37097 10.7798 8.27688 10.7292L5.59034 9.29441C5.39822 9.19179 5.19028 9.13876 4.97999 9.13876C4.7697 9.13876 4.56176 9.19179 4.36964 9.29441L1.70311 10.7472C1.60954 10.796 1.50577 10.8093 1.40572 10.7854C1.30568 10.7614 1.21413 10.7013 1.14336 10.6131C1.0726 10.5249 1.02599 10.4128 1.00979 10.292C0.993591 10.1711 1.00858 10.0471 1.05274 9.93678L4.55475 1.53197C4.59673 1.43363 4.66051 1.3511 4.73907 1.29348C4.81763 1.23585 4.90792 1.20536 5 1.20536C5.09208 1.20536 5.18237 1.23585 5.26093 1.29348C5.33949 1.3511 5.40327 1.43363 5.44526 1.53197L8.94726 9.93678C8.99253 10.0467 9.00865 10.1707 8.99344 10.292C8.97824 10.4133 8.93244 10.5261 8.86221 10.6152L8.8422 10.5972Z" fill="white"/>
</svg>
